# xmcd CD database file
#
# Track frame offsets:
#	150
#	17943
#	31800
#	55738
#	73654
#	98659
#	120279
#	135286
#	155955
#	174777
#	193605
#	212655
#	227985
#
# Disc length: 3221 seconds
#
# Revision: 0
# Processed by: cddbd v1.5.2PL0 Copyright (c) Steve Scherf et al.
# Submitted via: CDex 1.51
#
DISCID=a60c930d
DTITLE=Sony Holland - Out Of This World
DYEAR=2006
DGENRE=Jazz
TTITLE0=Old Devil Moon
TTITLE1=It's An Understatement
TTITLE2=The Nearrness Of You
TTITLE3=Summer Night
TTITLE4=I've Got You Under My Skin
TTITLE5=I'll Lead The Way
TTITLE6=Come Fly With Me
TTITLE7=In A Sentimental Mood
TTITLE8=At Last
TTITLE9=Out Of This World
TTITLE10=Skylark
TTITLE11=The Thrill is Gone
TTITLE12=By The Sea
EXTD=YEAR: 2006
EXTT0=
EXTT1=
EXTT2=
EXTT3=
EXTT4=
EXTT5=
EXTT6=
EXTT7=
EXTT8=
EXTT9=
EXTT10=
EXTT11=
EXTT12=
PLAYORDER=
